ply
format ascii 1.0
comment Created by Blender 2.83.5 - www.blender.org, source file: ''
element vertex 573
property float x
property float y
property float z
property float nx
property float ny
property float nz
property uchar red
property uchar green
property uchar blue
property uchar alpha
element face 430
property list uchar uint vertex_indices
end_header
218.750000 -75.000000 -100.000000 1.000000 -0.000000 0.000000 191 118 77 255
218.750000 -75.000000 -75.000000 1.000000 -0.000000 0.000000 191 107 52 255
218.750000 -81.250000 -100.000000 1.000000 -0.000000 0.000000 191 110 59 255
218.750000 -75.000000 -68.750000 1.000000 -0.000000 0.000000 191 107 52 255
218.750000 -78.125000 0.000000 1.000000 -0.000000 0.000000 191 107 52 255
218.750000 -81.250000 0.000000 1.000000 0.000000 0.000000 191 107 53 255
218.750000 -81.250000 0.000000 0.000000 -1.000000 0.000000 191 107 53 255
212.500000 -81.250000 -68.750000 0.000000 -1.000000 0.000000 191 107 52 255
218.750000 -81.250000 -100.000000 0.000000 -1.000000 0.000000 191 110 59 255
212.500000 -81.250000 -75.000000 0.000000 -1.000000 0.000000 191 107 52 255
212.500000 -81.250000 -100.000000 0.000000 -1.000000 0.000000 191 108 56 255
212.500000 -81.250000 -100.000000 -0.000000 -0.000000 -1.000000 191 108 56 255
212.500000 -75.000000 -100.000000 -0.000000 -0.000000 -1.000000 191 113 66 255
218.750000 -81.250000 -100.000000 -0.000000 -0.000000 -1.000000 191 110 59 255
218.750000 -75.000000 -100.000000 0.000000 0.000000 -1.000000 191 118 77 255
212.500000 -81.250000 -75.000000 -1.000000 0.000000 0.000000 191 107 52 255
212.500000 -75.000000 -100.000000 -1.000000 0.000000 0.000000 191 113 66 255
212.500000 -81.250000 -100.000000 -1.000000 0.000000 0.000000 191 108 56 255
-3.130598 -81.250000 -75.000000 0.000000 -1.000000 0.000000 191 107 52 255
-3.130598 -81.250000 -100.000000 0.000000 -1.000000 0.000000 191 107 52 255
3.130598 -81.250000 -100.000000 0.000000 -1.000000 0.000000 191 107 52 255
3.130598 -81.250000 -75.000000 0.000000 -1.000000 0.000000 191 107 52 255
3.130598 -75.000000 -75.000000 1.000000 0.000000 0.000000 191 107 52 255
3.130598 -81.250000 -75.000000 1.000000 0.000000 0.000000 191 107 52 255
3.130598 -81.250000 -100.000000 1.000000 0.000000 0.000000 191 107 52 255
3.130598 -75.000000 -100.000000 1.000000 -0.000000 0.000000 191 107 52 255
-3.130598 -75.000000 -100.000000 0.000000 0.000000 -1.000000 191 107 52 255
3.130598 -75.000000 -100.000000 0.000000 0.000000 -1.000000 191 107 52 255
3.130598 -81.250000 -100.000000 0.000000 0.000000 -1.000000 191 107 52 255
-3.130598 -81.250000 -100.000000 -0.000000 -0.000000 -1.000000 191 107 52 255
-3.130598 -81.250000 -75.000000 -1.000000 0.000000 0.000000 191 107 52 255
-3.130598 -75.000000 -100.000000 -1.000000 0.000000 0.000000 191 107 52 255
-3.130598 -81.250000 -100.000000 -1.000000 0.000000 0.000000 191 107 52 255
-212.500000 -81.250000 -75.000000 0.000000 -1.000000 0.000000 191 107 52 255
-218.750000 -81.250000 -100.000000 0.000000 -1.000000 0.000000 191 111 61 255
-212.500000 -81.250000 -100.000000 0.000000 -1.000000 0.000000 191 108 56 255
-212.500000 -75.000000 -75.000000 1.000000 0.000000 0.000000 191 107 52 255
-212.500000 -81.250000 -75.000000 1.000000 0.000000 0.000000 191 107 52 255
-212.500000 -81.250000 -100.000000 1.000000 0.000000 0.000000 191 108 56 255
-212.500000 -75.000000 -100.000000 1.000000 -0.000000 0.000000 191 108 56 255
-218.750000 -75.000000 -100.000000 0.000000 0.000000 -1.000000 191 116 74 255
-212.500000 -75.000000 -100.000000 0.000000 0.000000 -1.000000 191 108 56 255
-212.500000 -81.250000 -100.000000 0.000000 0.000000 -1.000000 191 108 56 255
-218.750000 -81.250000 -100.000000 -0.000000 -0.000000 -1.000000 191 111 61 255
-212.500000 -81.250000 -68.750000 0.000000 -1.000000 0.000000 191 107 52 255
-218.750000 -81.250000 0.000000 0.000000 -1.000000 0.000000 191 107 52 255
-218.750000 -78.125000 0.000000 -1.000000 0.000000 0.000000 191 107 52 255
-218.750000 -75.000000 -68.750000 -1.000000 0.000000 0.000000 191 107 52 255
-218.750000 -81.250000 -100.000000 -1.000000 0.000000 0.000000 191 111 61 255
-218.750000 -81.250000 0.000000 -1.000000 0.000000 0.000000 191 107 52 255
-218.750000 -75.000000 -75.000000 -1.000000 0.000000 0.000000 191 107 52 255
-218.750000 -75.000000 -100.000000 -1.000000 0.000000 0.000000 191 116 74 255
212.500000 -75.000000 -75.000000 0.000000 1.000000 -0.000000 191 107 52 255
218.750000 -75.000000 -75.000000 0.000000 1.000000 -0.000000 191 107 52 255
218.750000 -75.000000 -100.000000 0.000000 1.000000 -0.000000 191 118 77 255
212.500000 -75.000000 -100.000000 0.000000 1.000000 0.000000 191 113 66 255
212.500000 -75.000000 -75.000000 -1.000000 0.000000 0.000000 191 107 52 255
-3.130598 -75.000000 -75.000000 0.000000 1.000000 -0.000000 191 107 52 255
3.130598 -75.000000 -75.000000 0.000000 1.000000 -0.000000 191 107 52 255
3.130598 -75.000000 -100.000000 0.000000 1.000000 -0.000000 191 107 52 255
-3.130598 -75.000000 -100.000000 0.000000 1.000000 0.000000 191 107 52 255
-3.130598 -75.000000 -75.000000 -1.000000 0.000000 0.000000 191 107 52 255
-218.750000 -75.000000 -75.000000 0.000000 1.000000 -0.000000 191 107 52 255
-212.500000 -75.000000 -75.000000 0.000000 1.000000 -0.000000 191 107 52 255
-212.500000 -75.000000 -100.000000 0.000000 1.000000 -0.000000 191 108 56 255
-218.750000 -75.000000 -100.000000 0.000000 1.000000 0.000000 191 116 74 255
218.750000 81.250000 -100.000000 1.000000 -0.000000 0.000000 192 112 62 255
218.750000 75.000000 -75.000000 1.000000 -0.000000 0.000000 191 107 52 255
218.750000 75.000000 -100.000000 1.000000 -0.000000 0.000000 206 150 126 255
218.750000 75.000000 -75.000000 0.000000 -1.000000 0.000000 191 107 52 255
212.500000 75.000000 -100.000000 0.000000 -1.000000 0.000000 193 113 65 255
218.750000 75.000000 -100.000000 0.000000 -1.000000 0.000000 206 150 126 255
212.500000 75.000000 -100.000000 -0.000000 -0.000000 -1.000000 193 113 65 255
212.500000 81.250000 -100.000000 -0.000000 -0.000000 -1.000000 193 113 65 255
218.750000 75.000000 -100.000000 -0.000000 -0.000000 -1.000000 206 150 126 255
218.750000 81.250000 -100.000000 0.000000 0.000000 -1.000000 192 112 62 255
212.500000 75.000000 -75.000000 0.000000 -1.000000 0.000000 191 107 52 255
212.500000 75.000000 -75.000000 -1.000000 0.000000 0.000000 191 107 52 255
212.500000 81.250000 -100.000000 -1.000000 0.000000 0.000000 193 113 65 255
212.500000 75.000000 -100.000000 -1.000000 0.000000 0.000000 193 113 65 255
3.130598 81.250000 -75.000000 1.000000 0.000000 0.000000 191 107 52 255
3.130598 75.000000 -75.000000 1.000000 0.000000 0.000000 191 107 52 255
3.130598 75.000000 -100.000000 1.000000 0.000000 0.000000 191 107 52 255
3.130598 81.250000 -100.000000 1.000000 -0.000000 0.000000 191 107 52 255
3.130598 75.000000 -75.000000 0.000000 -1.000000 0.000000 191 107 52 255
-3.130598 75.000000 -100.000000 0.000000 -1.000000 0.000000 191 107 52 255
3.130598 75.000000 -100.000000 0.000000 -1.000000 0.000000 191 107 52 255
-3.130598 81.250000 -100.000000 0.000000 0.000000 -1.000000 191 107 53 255
3.130598 81.250000 -100.000000 0.000000 0.000000 -1.000000 191 107 52 255
3.130598 75.000000 -100.000000 0.000000 0.000000 -1.000000 191 107 52 255
-3.130598 75.000000 -100.000000 -0.000000 -0.000000 -1.000000 191 107 52 255
-3.130598 75.000000 -75.000000 -1.000000 0.000000 0.000000 191 107 52 255
-3.130598 81.250000 -100.000000 -1.000000 0.000000 0.000000 191 107 53 255
-3.130598 75.000000 -100.000000 -1.000000 0.000000 0.000000 191 107 52 255
-3.130598 75.000000 -75.000000 0.000000 -1.000000 0.000000 191 107 52 255
-212.500000 81.250000 -75.000000 1.000000 0.000000 0.000000 191 107 52 255
-212.500000 75.000000 -75.000000 1.000000 0.000000 0.000000 191 107 52 255
-212.500000 75.000000 -100.000000 1.000000 0.000000 0.000000 191 107 52 255
-212.500000 81.250000 -100.000000 1.000000 -0.000000 0.000000 191 107 52 255
-212.500000 75.000000 -75.000000 0.000000 -1.000000 0.000000 191 107 52 255
-218.750000 75.000000 -100.000000 0.000000 -1.000000 0.000000 191 107 52 255
-212.500000 75.000000 -100.000000 0.000000 -1.000000 0.000000 191 107 52 255
-218.750000 81.250000 -100.000000 0.000000 0.000000 -1.000000 191 107 53 255
-212.500000 81.250000 -100.000000 0.000000 0.000000 -1.000000 191 107 52 255
-212.500000 75.000000 -100.000000 0.000000 0.000000 -1.000000 191 107 52 255
-218.750000 75.000000 -100.000000 -0.000000 -0.000000 -1.000000 191 107 52 255
-218.750000 75.000000 -75.000000 -1.000000 0.000000 0.000000 191 107 52 255
-218.750000 81.250000 -100.000000 -1.000000 0.000000 0.000000 191 107 53 255
-218.750000 75.000000 -100.000000 -1.000000 0.000000 0.000000 191 107 52 255
-218.750000 75.000000 -75.000000 0.000000 -1.000000 0.000000 191 107 52 255
218.750000 81.250000 0.000000 1.000000 0.000000 -0.000000 191 107 52 255
218.750000 75.000000 -68.750000 1.000000 0.000000 -0.000000 191 107 52 255
212.500000 81.250000 -75.000000 0.000000 1.000000 -0.000000 191 107 52 255
218.750000 81.250000 0.000000 0.000000 1.000000 -0.000000 191 107 52 255
218.750000 81.250000 -100.000000 0.000000 1.000000 -0.000000 192 112 62 255
212.500000 81.250000 -100.000000 0.000000 1.000000 0.000000 193 113 65 255
212.500000 81.250000 -75.000000 -1.000000 0.000000 0.000000 191 107 52 255
-3.130598 81.250000 -100.000000 0.000000 1.000000 -0.000000 191 107 53 255
3.130598 81.250000 -75.000000 0.000000 1.000000 -0.000000 191 107 52 255
3.130598 81.250000 -100.000000 0.000000 1.000000 -0.000000 191 107 52 255
-3.130598 81.250000 -75.000000 0.000000 1.000000 -0.000000 191 107 52 255
-3.130598 81.250000 -75.000000 -1.000000 0.000000 0.000000 191 107 52 255
-218.750000 81.250000 -100.000000 0.000000 1.000000 -0.000000 191 107 53 255
-212.500000 81.250000 -75.000000 0.000000 1.000000 -0.000000 191 107 52 255
-212.500000 81.250000 -100.000000 0.000000 1.000000 -0.000000 191 107 52 255
-218.750000 81.250000 0.000000 0.000000 1.000000 -0.000000 191 107 52 255
-218.750000 75.000000 -68.750000 -1.000000 -0.000000 -0.000000 191 107 52 255
-218.750000 81.250000 0.000000 -1.000000 -0.000000 0.000000 191 107 52 255
3.130598 -81.250000 -75.000000 -0.000000 -0.000000 -1.000000 191 107 52 255
3.130598 -75.000000 -75.000000 -0.000000 -0.000000 -1.000000 191 107 52 255
212.500000 -81.250000 -75.000000 -0.000000 -0.000000 -1.000000 191 107 52 255
212.500000 -75.000000 -75.000000 0.000000 0.000000 -1.000000 191 107 52 255
3.130598 -81.250000 -68.750000 0.000000 -1.000000 0.000000 191 107 52 255
-3.130598 -81.250000 -68.750000 0.000000 -1.000000 0.000000 191 107 52 255
-212.500000 -75.000000 -75.000000 0.000000 0.000000 -1.000000 191 107 52 255
-3.130598 -75.000000 -75.000000 0.000000 0.000000 -1.000000 191 107 52 255
-3.130598 -81.250000 -75.000000 0.000000 0.000000 -1.000000 191 107 52 255
-212.500000 -81.250000 -75.000000 -0.000000 -0.000000 -1.000000 191 107 52 255
218.750000 75.000000 -75.000000 -0.000000 0.000000 -1.000000 191 107 52 255
218.750000 -75.000000 -75.000000 -0.000000 0.000000 -1.000000 191 107 52 255
212.500000 75.000000 -75.000000 0.000000 0.000000 -1.000000 191 107 52 255
212.500000 -75.000000 -68.750000 -1.000000 0.000000 0.000000 191 108 55 255
212.500000 75.000000 -68.750000 -1.000000 0.000000 0.000000 193 112 63 255
212.500000 -75.000000 -68.750000 0.000000 1.000000 -0.000000 191 108 55 255
3.130598 75.000000 -75.000000 -0.000000 0.000000 -1.000000 191 107 52 255
3.130598 -75.000000 -68.750000 0.000000 1.000000 -0.000000 191 107 52 255
3.130598 -75.000000 -68.750000 1.000000 -0.000000 0.000000 191 107 52 255
-3.130598 75.000000 -75.000000 0.000000 0.000000 -1.000000 191 107 52 255
-3.130598 -75.000000 -68.750000 -1.000000 0.000000 0.000000 191 107 52 255
-3.130598 75.000000 -68.750000 -1.000000 0.000000 0.000000 193 115 69 255
-3.130598 -75.000000 -68.750000 0.000000 1.000000 -0.000000 191 107 52 255
-218.750000 -75.000000 -75.000000 -0.000000 0.000000 -1.000000 191 107 52 255
-212.500000 75.000000 -75.000000 -0.000000 0.000000 -1.000000 191 107 52 255
-212.500000 -75.000000 -68.750000 0.000000 1.000000 -0.000000 191 107 52 255
-212.500000 -75.000000 -68.750000 1.000000 -0.000000 0.000000 191 107 52 255
-218.750000 75.000000 -75.000000 0.000000 0.000000 -1.000000 191 107 52 255
3.130598 81.250000 -75.000000 -0.000000 -0.000000 -1.000000 191 107 52 255
212.500000 81.250000 -75.000000 0.000000 0.000000 -1.000000 191 107 52 255
212.500000 75.000000 -68.750000 0.000000 -1.000000 0.000000 193 112 63 255
3.130598 75.000000 -68.750000 0.000000 -1.000000 0.000000 194 115 70 255
3.130598 75.000000 -68.750000 1.000000 0.000000 -0.000000 194 115 70 255
-212.500000 81.250000 -75.000000 0.000000 0.000000 -1.000000 191 107 52 255
-3.130598 81.250000 -75.000000 0.000000 0.000000 -1.000000 191 107 52 255
-3.130598 75.000000 -68.750000 0.000000 -1.000000 0.000000 193 115 69 255
-212.500000 75.000000 -68.750000 0.000000 -1.000000 0.000000 194 117 73 255
-212.500000 75.000000 -68.750000 1.000000 0.000000 -0.000000 194 117 73 255
3.130598 81.250000 -68.750000 0.000000 1.000000 0.000000 191 107 52 255
212.500000 81.250000 -68.750000 0.000000 1.000000 -0.000000 191 107 52 255
-3.130598 81.250000 -68.750000 0.000000 1.000000 0.000000 191 107 52 255
-212.500000 81.250000 -68.750000 0.000000 1.000000 0.000000 191 107 52 255
212.500000 -78.125000 0.000000 -1.000000 0.000000 0.000000 191 107 52 255
212.500000 -81.250000 -68.750000 -1.000000 0.000000 0.000000 191 107 52 255
212.500000 -81.250000 0.000000 -1.000000 0.000000 0.000000 191 107 52 255
212.500000 -81.250000 0.000000 0.000000 -1.000000 0.000000 191 107 52 255
212.500000 -75.000000 -68.750000 0.000000 -0.000000 1.000000 191 108 55 255
3.130598 -75.000000 -68.750000 0.000000 -0.000000 1.000000 191 107 52 255
212.500000 -81.250000 -68.750000 0.000000 -0.000000 1.000000 191 107 52 255
3.130598 -81.250000 -68.750000 0.000000 -0.000000 1.000000 191 107 52 255
3.130598 -78.125000 0.000000 1.000000 0.000000 0.000000 191 107 52 255
3.130598 -81.250000 0.000000 1.000000 0.000000 0.000000 191 107 52 255
3.130598 -81.250000 -68.750000 1.000000 0.000000 0.000000 191 107 52 255
3.130598 -81.250000 0.000000 0.000000 -1.000000 0.000000 191 107 52 255
-3.130598 -81.250000 0.000000 0.000000 -1.000000 0.000000 191 107 52 255
-3.130598 -78.125000 0.000000 -1.000000 0.000000 0.000000 191 107 52 255
-3.130598 -81.250000 -68.750000 -1.000000 0.000000 0.000000 191 107 52 255
-3.130598 -81.250000 0.000000 -1.000000 0.000000 0.000000 191 107 52 255
-212.500000 -75.000000 -68.750000 0.000000 -0.000000 1.000000 191 107 52 255
-212.500000 -81.250000 -68.750000 0.000000 -0.000000 1.000000 191 107 52 255
-3.130598 -81.250000 -68.750000 0.000000 -0.000000 1.000000 191 107 52 255
-3.130598 -75.000000 -68.750000 0.000000 -0.000000 1.000000 191 107 52 255
-212.500000 -78.125000 0.000000 1.000000 0.000000 0.000000 191 107 52 255
-212.500000 -81.250000 0.000000 1.000000 0.000000 0.000000 191 107 52 255
-212.500000 -81.250000 -68.750000 1.000000 0.000000 0.000000 191 107 52 255
-212.500000 -81.250000 0.000000 0.000000 -1.000000 0.000000 191 107 52 255
218.750000 -75.000000 0.000000 0.000000 1.000000 -0.000000 191 107 52 255
218.750000 -75.000000 -68.750000 0.000000 1.000000 -0.000000 191 107 52 255
218.750000 -75.000000 0.000000 1.000000 0.000000 -0.000000 191 107 52 255
218.750000 75.000000 -68.750000 0.000000 -0.000000 1.000000 191 107 52 255
218.750000 -75.000000 -68.750000 0.000000 -0.000000 1.000000 191 107 52 255
212.500000 -75.000000 0.000000 -1.000000 0.000000 0.000000 191 107 52 255
212.500000 -75.000000 0.000000 0.000000 1.000000 -0.000000 191 107 52 255
212.500000 75.000000 -68.750000 0.000000 0.000000 1.000000 193 112 63 255
3.130598 -75.000000 0.000000 0.000000 1.000000 -0.000000 191 107 52 255
3.130598 -75.000000 0.000000 1.000000 0.000000 -0.000000 191 107 52 255
3.130598 75.000000 -68.750000 0.000000 -0.000000 1.000000 194 115 70 255
-3.130598 -75.000000 -0.000000 -1.000000 0.000000 0.000000 191 107 52 255
-3.130598 -75.000000 -0.000000 0.000000 1.000000 -0.000000 191 107 52 255
-3.130598 75.000000 -68.750000 0.000000 0.000000 1.000000 193 115 69 255
-218.750000 -75.000000 -68.750000 0.000000 1.000000 -0.000000 191 107 52 255
-212.500000 -75.000000 0.000000 0.000000 1.000000 -0.000000 191 107 52 255
-212.500000 -75.000000 0.000000 1.000000 0.000000 -0.000000 191 107 52 255
-212.500000 75.000000 -68.750000 0.000000 -0.000000 1.000000 194 117 73 255
-218.750000 -75.000000 -68.750000 0.000000 -0.000000 1.000000 191 107 52 255
-218.750000 -75.000000 0.000000 0.000000 1.000000 -0.000000 191 107 52 255
-218.750000 -75.000000 0.000000 -1.000000 0.000000 0.000000 191 107 52 255
-218.750000 75.000000 -68.750000 0.000000 0.000000 1.000000 191 107 52 255
218.750000 75.000000 0.000000 0.000000 -1.000000 0.000000 191 107 52 255
212.500000 75.000000 0.000000 0.000000 -1.000000 0.000000 191 108 53 255
218.750000 75.000000 -68.750000 0.000000 -1.000000 0.000000 191 107 52 255
218.750000 75.000000 0.000000 1.000000 0.000000 0.000000 191 107 52 255
212.500000 75.000000 0.000000 -1.000000 0.000000 0.000000 191 108 53 255
212.500000 81.250000 0.000000 -1.000000 0.000000 0.000000 191 108 55 255
212.500000 81.250000 -68.750000 -1.000000 0.000000 0.000000 191 107 52 255
212.500000 81.250000 -68.750000 0.000000 -0.000000 1.000000 191 107 52 255
3.130598 81.250000 -68.750000 0.000000 -0.000000 1.000000 191 107 52 255
3.130598 81.250000 -68.750000 1.000000 -0.000000 0.000000 191 107 52 255
3.130598 75.000000 -0.000000 1.000000 -0.000000 0.000000 191 107 52 255
3.130598 75.000000 -0.000000 0.000000 -1.000000 0.000000 191 107 52 255
-3.130598 75.000000 0.000000 0.000000 -1.000000 0.000000 191 107 52 255
-3.130598 75.000000 0.000000 -1.000000 0.000000 0.000000 191 107 52 255
-3.130598 81.250000 0.000000 -1.000000 0.000000 0.000000 191 107 52 255
-3.130598 81.250000 -68.750000 -1.000000 0.000000 0.000000 191 107 52 255
-212.500000 81.250000 -68.750000 0.000000 -0.000000 1.000000 191 107 52 255
-3.130598 81.250000 -68.750000 0.000000 -0.000000 1.000000 191 107 52 255
-212.500000 81.250000 -68.750000 1.000000 -0.000000 0.000000 191 107 52 255
-212.500000 75.000000 0.000000 1.000000 -0.000000 0.000000 191 107 52 255
-212.500000 75.000000 0.000000 0.000000 -1.000000 0.000000 191 107 52 255
-218.750000 75.000000 0.000000 0.000000 -1.000000 0.000000 191 107 52 255
-218.750000 75.000000 -68.750000 0.000000 -1.000000 0.000000 191 107 52 255
-218.750000 75.000000 0.000000 -1.000000 0.000000 0.000000 191 107 52 255
212.500000 81.250000 0.000000 0.000000 1.000000 -0.000000 191 108 55 255
3.130598 81.250000 0.000000 1.000000 0.000000 -0.000000 191 107 52 255
3.130598 81.250000 0.000000 0.000000 1.000000 -0.000000 191 107 52 255
-3.130598 81.250000 0.000000 0.000000 1.000000 -0.000000 191 107 52 255
-212.500000 81.250000 0.000000 1.000000 0.000000 -0.000000 191 107 52 255
-212.500000 81.250000 0.000000 0.000000 1.000000 -0.000000 191 107 52 255
221.875000 -87.500000 0.000000 -0.000000 0.000000 -1.000000 191 118 77 255
225.000000 -86.250000 0.000000 -0.000000 0.000000 -1.000000 191 127 94 255
223.750000 -87.500000 0.000000 -0.000000 0.000000 -1.000000 191 126 91 255
223.945541 -87.484612 0.000000 0.000000 0.000000 -1.000000 191 127 93 255
223.750000 -87.500000 3.750000 0.000000 -1.000000 0.000000 191 191 191 255
221.875000 -87.500000 0.000000 0.000000 -1.000000 0.000000 191 118 77 255
223.750000 -87.500000 0.000000 0.000000 -1.000000 0.000000 191 126 91 255
223.945541 -87.484612 0.000000 0.078454 -0.996918 0.000000 191 127 93 255
223.750000 -87.500000 3.750000 0.078454 -0.996918 0.000000 191 191 191 255
223.750000 -87.500000 0.000000 0.078454 -0.996918 0.000000 191 126 91 255
107.815292 -87.500000 0.000000 -0.000000 0.000000 -1.000000 191 127 94 255
212.500000 -81.250000 0.000000 -0.000000 0.000000 -1.000000 191 107 52 255
225.000000 -78.125000 0.000000 0.000000 0.000000 -1.000000 191 109 57 255
221.875000 -78.125000 0.000000 0.000000 0.000000 -1.000000 191 108 53 255
218.750000 -81.250000 0.000000 -0.000000 0.000000 -1.000000 191 107 53 255
107.815292 -87.500000 0.000000 0.000000 -1.000000 0.000000 191 127 94 255
3.130598 -81.250000 0.000000 -0.000000 0.000000 -1.000000 191 107 52 255
107.815292 -78.125000 0.000000 -0.000000 0.000000 -1.000000 191 107 53 255
-3.130598 -81.250000 0.000000 0.000000 0.000000 -1.000000 191 107 52 255
-107.815292 -87.500000 0.000000 -0.000000 0.000000 -1.000000 191 107 52 255
212.500000 -78.125000 0.000000 0.000000 0.000000 -1.000000 191 107 52 255
-107.815292 -87.500000 0.000000 0.000000 -1.000000 0.000000 191 107 52 255
-3.130598 -78.125000 0.000000 0.000000 0.000000 -1.000000 191 107 52 255
-107.815292 -78.125000 0.000000 0.000000 0.000000 -1.000000 191 107 52 255
-212.500000 -81.250000 0.000000 -0.000000 0.000000 -1.000000 191 107 52 255
-223.750000 -87.500000 0.000000 -0.000000 0.000000 -1.000000 191 107 52 255
-223.750000 -87.500000 3.750000 0.000000 -1.000000 0.000000 191 191 191 255
-223.750000 -87.500000 0.000000 0.000000 -1.000000 0.000000 191 107 52 255
-218.750000 -81.250000 0.000000 0.000000 0.000000 -1.000000 191 107 52 255
-223.945541 -87.484612 0.000000 -0.000000 0.000000 -1.000000 191 107 52 255
-223.945541 -87.484612 3.750000 -0.078454 -0.996918 0.000000 191 191 191 255
-223.945541 -87.484612 0.000000 -0.078454 -0.996918 0.000000 191 107 52 255
-223.750000 -87.500000 0.000000 -0.078454 -0.996918 0.000000 191 107 52 255
-223.750000 -87.500000 3.750000 -0.078454 -0.996918 0.000000 191 191 191 255
224.984619 -86.445541 0.000000 0.000000 0.000000 -1.000000 191 127 95 255
224.938828 -86.636269 0.000000 0.000000 0.000000 -1.000000 191 128 97 255
224.863754 -86.817490 0.000000 0.000000 0.000000 -1.000000 191 128 97 255
224.761276 -86.984734 0.000000 0.000000 0.000000 -1.000000 191 129 97 255
224.633881 -87.133881 0.000000 0.000000 0.000000 -1.000000 191 128 97 255
224.136276 -87.438820 0.000000 0.000000 0.000000 -1.000000 191 127 94 255
223.945541 -87.484612 3.750000 0.078454 -0.996918 0.000000 191 191 191 255
224.136276 -87.438820 0.000000 0.233447 -0.972370 0.000000 191 127 94 255
223.945541 -87.484612 3.750000 0.233447 -0.972370 0.000000 191 191 191 255
223.945541 -87.484612 0.000000 0.233447 -0.972370 0.000000 191 127 93 255
-224.136276 -87.438820 0.000000 -0.000000 0.000000 -1.000000 191 107 52 255
-224.136276 -87.438820 3.750000 -0.233447 -0.972370 0.000000 191 191 191 255
-224.136276 -87.438820 0.000000 -0.233447 -0.972370 0.000000 191 107 52 255
-223.945541 -87.484612 0.000000 -0.233447 -0.972370 0.000000 191 107 52 255
-223.945541 -87.484612 3.750000 -0.233447 -0.972370 0.000000 191 191 191 255
224.317490 -87.363754 0.000000 0.000000 0.000000 -1.000000 191 127 95 255
224.136276 -87.438820 3.750000 0.233447 -0.972370 0.000000 191 191 191 255
224.317490 -87.363754 0.000000 0.382703 -0.923871 0.000000 191 127 95 255
224.136276 -87.438820 3.750000 0.382703 -0.923871 0.000000 191 191 191 255
224.136276 -87.438820 0.000000 0.382703 -0.923871 0.000000 191 127 94 255
-224.317490 -87.363754 0.000000 -0.000000 0.000000 -1.000000 191 107 52 255
-224.317490 -87.363754 3.750000 -0.382703 -0.923871 0.000000 191 191 191 255
-224.317490 -87.363754 0.000000 -0.382703 -0.923871 0.000000 191 107 52 255
-224.136276 -87.438820 0.000000 -0.382703 -0.923871 0.000000 191 107 52 255
-224.136276 -87.438820 3.750000 -0.382703 -0.923871 0.000000 191 191 191 255
224.484726 -87.261276 0.000000 0.000000 0.000000 -1.000000 191 128 97 255
224.317490 -87.363754 3.750000 0.382703 -0.923871 0.000000 191 191 191 255
224.484726 -87.261276 0.000000 0.522482 -0.852650 0.000000 191 128 97 255
224.317490 -87.363754 3.750000 0.522482 -0.852650 0.000000 191 191 191 255
224.317490 -87.363754 0.000000 0.522482 -0.852650 0.000000 191 127 95 255
-224.484726 -87.261276 0.000000 -0.000000 0.000000 -1.000000 191 107 52 255
-224.484726 -87.261276 3.750000 -0.522482 -0.852650 0.000000 191 191 191 255
-224.484726 -87.261276 0.000000 -0.522482 -0.852650 0.000000 191 107 52 255
-224.317490 -87.363754 0.000000 -0.522482 -0.852650 0.000000 191 107 52 255
-224.317490 -87.363754 3.750000 -0.522482 -0.852650 0.000000 191 191 191 255
224.484726 -87.261276 3.750000 0.522482 -0.852650 0.000000 191 191 191 255
224.633881 -87.133881 0.000000 0.649464 -0.760392 0.000000 191 128 97 255
224.484726 -87.261276 3.750000 0.649464 -0.760392 0.000000 191 191 191 255
224.484726 -87.261276 0.000000 0.649464 -0.760392 0.000000 191 128 97 255
-224.633881 -87.133881 0.000000 -0.000000 0.000000 -1.000000 191 107 52 255
-224.633881 -87.133881 3.750000 -0.649464 -0.760392 0.000000 191 191 191 255
-224.633881 -87.133881 0.000000 -0.649464 -0.760392 0.000000 191 107 52 255
-224.484726 -87.261276 0.000000 -0.649464 -0.760392 0.000000 191 107 52 255
-224.484726 -87.261276 3.750000 -0.649464 -0.760392 0.000000 191 191 191 255
224.633881 -87.133881 3.750000 0.649464 -0.760392 0.000000 191 191 191 255
224.761276 -86.984734 0.000000 0.760376 -0.649484 0.000000 191 129 97 255
224.633881 -87.133881 3.750000 0.760376 -0.649484 0.000000 191 191 191 255
224.633881 -87.133881 0.000000 0.760376 -0.649484 0.000000 191 128 97 255
-224.761276 -86.984734 0.000000 -0.000000 0.000000 -1.000000 191 107 52 255
-224.761276 -86.984734 3.750000 -0.760376 -0.649484 0.000000 191 191 191 255
-224.761276 -86.984734 0.000000 -0.760376 -0.649484 0.000000 191 107 52 255
-224.633881 -87.133881 0.000000 -0.760376 -0.649484 0.000000 191 107 52 255
-224.633881 -87.133881 3.750000 -0.760376 -0.649484 0.000000 191 191 191 255
224.761276 -86.984734 3.750000 0.760376 -0.649484 0.000000 191 191 191 255
224.863754 -86.817490 0.000000 0.852661 -0.522464 0.000000 191 128 97 255
224.761276 -86.984734 3.750000 0.852661 -0.522464 0.000000 191 191 191 255
224.761276 -86.984734 0.000000 0.852661 -0.522464 0.000000 191 129 97 255
-224.863754 -86.817490 0.000000 -0.000000 0.000000 -1.000000 191 107 52 255
-224.863754 -86.817490 3.750000 -0.852661 -0.522464 0.000000 191 191 191 255
-224.863754 -86.817490 0.000000 -0.852661 -0.522464 0.000000 191 107 52 255
-224.761276 -86.984734 0.000000 -0.852661 -0.522464 0.000000 191 107 52 255
-224.761276 -86.984734 3.750000 -0.852661 -0.522464 0.000000 191 191 191 255
224.863754 -86.817490 3.750000 0.852661 -0.522464 0.000000 191 191 191 255
224.938828 -86.636269 0.000000 0.923863 -0.382723 0.000000 191 128 97 255
224.863754 -86.817490 3.750000 0.923863 -0.382723 0.000000 191 191 191 255
224.863754 -86.817490 0.000000 0.923863 -0.382723 0.000000 191 128 97 255
-224.938828 -86.636269 0.000000 -0.000000 0.000000 -1.000000 191 107 52 255
-224.938828 -86.636269 3.750000 -0.923863 -0.382723 0.000000 191 191 191 255
-224.938828 -86.636269 0.000000 -0.923863 -0.382723 0.000000 191 107 52 255
-224.863754 -86.817490 0.000000 -0.923863 -0.382723 0.000000 191 107 52 255
-224.863754 -86.817490 3.750000 -0.923863 -0.382723 0.000000 191 191 191 255
224.938828 -86.636269 3.750000 0.923863 -0.382723 0.000000 191 191 191 255
224.984619 -86.445541 0.000000 0.972368 -0.233455 0.000000 191 127 95 255
224.938828 -86.636269 3.750000 0.972368 -0.233455 0.000000 191 191 191 255
224.938828 -86.636269 0.000000 0.972368 -0.233455 0.000000 191 128 97 255
-224.984619 -86.445541 0.000000 -0.000000 0.000000 -1.000000 191 107 52 255
-224.984619 -86.445541 3.750000 -0.972368 -0.233455 0.000000 191 191 191 255
-224.984619 -86.445541 0.000000 -0.972368 -0.233455 0.000000 191 107 52 255
-224.938828 -86.636269 0.000000 -0.972368 -0.233455 0.000000 191 107 52 255
-224.938828 -86.636269 3.750000 -0.972368 -0.233455 0.000000 191 191 191 255
224.984619 -86.445541 3.750000 0.972368 -0.233455 0.000000 191 191 191 255
225.000000 -86.250000 0.000000 0.996921 -0.078416 0.000000 191 127 94 255
224.984619 -86.445541 3.750000 0.996921 -0.078416 0.000000 191 191 191 255
224.984619 -86.445541 0.000000 0.996921 -0.078416 0.000000 191 127 95 255
-225.000000 -86.250000 0.000000 -0.000000 0.000000 -1.000000 191 107 52 255
-225.000000 -86.250000 3.750000 -0.996921 -0.078416 0.000000 191 191 191 255
-225.000000 -86.250000 0.000000 -0.996921 -0.078416 0.000000 191 107 52 255
-224.984619 -86.445541 0.000000 -0.996921 -0.078416 0.000000 191 107 52 255
-224.984619 -86.445541 3.750000 -0.996921 -0.078416 0.000000 191 191 191 255
225.000000 -86.250000 3.750000 0.996921 -0.078416 0.000000 191 191 191 255
225.000000 -78.125000 0.000000 1.000000 -0.000000 0.000000 191 109 57 255
225.000000 -86.250000 3.750000 1.000000 -0.000000 0.000000 191 191 191 255
225.000000 -86.250000 0.000000 1.000000 -0.000000 0.000000 191 127 94 255
-218.750000 -78.125000 0.000000 0.000000 0.000000 -1.000000 191 107 52 255
-225.000000 -78.125000 0.000000 0.000000 0.000000 -1.000000 191 107 52 255
-225.000000 -86.250000 3.750000 -1.000000 0.000000 0.000000 191 191 191 255
-225.000000 -78.125000 0.000000 -1.000000 0.000000 0.000000 191 107 52 255
-225.000000 -86.250000 0.000000 -1.000000 0.000000 0.000000 191 107 52 255
218.750000 -78.125000 0.000000 0.000000 0.000000 -1.000000 191 107 52 255
3.130598 -78.125000 0.000000 0.000000 0.000000 -1.000000 191 107 52 255
-212.500000 -78.125000 0.000000 0.000000 0.000000 -1.000000 191 107 52 255
221.875000 0.000000 0.000000 0.000000 0.000000 -1.000000 191 115 71 255
225.000000 0.000000 0.000000 0.000000 0.000000 -1.000000 191 135 109 255
225.000000 0.000000 0.000000 1.000000 -0.000000 -0.000000 191 135 109 255
218.750000 -75.000000 0.000000 -0.000000 -0.000000 -1.000000 191 107 52 255
212.500000 -75.000000 0.000000 -0.000000 0.000000 -1.000000 191 107 52 255
107.815292 0.000000 0.000000 -0.000000 0.000000 -1.000000 191 107 52 255
3.130598 -75.000000 0.000000 -0.000000 0.000000 -1.000000 191 107 52 255
-3.130598 -75.000000 -0.000000 0.000000 -0.000000 -1.000000 191 107 52 255
-107.815292 0.000000 0.000000 -0.000000 0.000000 -1.000000 191 107 52 255
-212.500000 -75.000000 0.000000 -0.000000 0.000000 -1.000000 191 107 52 255
-218.750000 -75.000000 0.000000 -0.000000 0.000000 -1.000000 191 107 52 255
-225.000000 0.000000 0.000000 0.000000 0.000000 -1.000000 191 113 67 255
-225.000000 0.000000 0.000000 -1.000000 0.000000 0.000000 191 113 67 255
221.875000 84.375000 0.000000 0.000000 0.000000 -1.000000 191 107 53 255
225.000000 84.375000 0.000000 0.000000 0.000000 -1.000000 191 108 55 255
225.000000 86.250000 3.750000 1.000000 0.000000 -0.000000 191 191 191 255
225.000000 84.375000 0.000000 1.000000 -0.000000 0.000000 191 108 55 255
218.750000 75.000000 0.000000 -0.000000 0.000000 -1.000000 191 107 52 255
212.500000 75.000000 0.000000 0.000000 0.000000 -1.000000 191 108 53 255
3.130598 75.000000 -0.000000 0.000000 0.000000 -1.000000 191 107 52 255
107.815292 84.375000 0.000000 0.000000 0.000000 -1.000000 191 107 52 255
-3.130598 75.000000 0.000000 -0.000000 -0.000000 -1.000000 191 107 52 255
212.500000 81.250000 0.000000 0.000000 0.000000 -1.000000 191 108 55 255
-218.750000 75.000000 0.000000 -0.000000 0.000000 -1.000000 191 107 52 255
-212.500000 75.000000 0.000000 0.000000 0.000000 -1.000000 191 107 52 255
-107.815292 84.375000 0.000000 -0.000000 0.000000 -1.000000 191 107 52 255
-3.130598 81.250000 0.000000 0.000000 0.000000 -1.000000 191 107 52 255
-225.000000 84.375000 0.000000 0.000000 0.000000 -1.000000 191 107 52 255
-225.000000 86.250000 3.750000 -1.000000 0.000000 0.000000 223 219 219 255
-225.000000 84.375000 0.000000 -1.000000 0.000000 0.000000 191 107 52 255
218.750000 81.250000 0.000000 -0.000000 0.000000 -1.000000 191 107 52 255
3.130598 81.250000 0.000000 -0.000000 0.000000 -1.000000 191 107 52 255
-212.500000 81.250000 0.000000 -0.000000 0.000000 -1.000000 191 107 52 255
-218.750000 81.250000 0.000000 0.000000 0.000000 -1.000000 191 107 52 255
225.000000 86.250000 0.000000 -0.000000 0.000000 -1.000000 191 109 57 255
225.000000 86.250000 0.000000 1.000000 -0.000000 0.000000 191 109 57 255
221.875000 87.500000 0.000000 0.000000 0.000000 -1.000000 191 108 55 255
107.815292 87.500000 0.000000 0.000000 0.000000 -1.000000 191 107 52 255
-107.815292 87.500000 0.000000 0.000000 0.000000 -1.000000 191 107 52 255
-225.000000 86.250000 0.000000 -0.000000 -0.000000 -1.000000 191 107 53 255
-223.750000 87.500000 0.000000 0.000000 0.000000 -1.000000 191 108 54 255
-225.000000 86.250000 0.000000 -1.000000 0.000000 0.000000 191 107 53 255
223.750000 87.500000 0.000000 0.000000 0.000000 -1.000000 191 109 58 255
224.984619 86.445541 0.000000 0.000000 0.000000 -1.000000 191 109 58 255
224.984619 86.445541 0.000000 0.996921 0.078416 -0.000000 191 109 58 255
225.000000 86.250000 3.750000 0.996921 0.078416 -0.000000 191 191 191 255
225.000000 86.250000 0.000000 0.996921 0.078416 -0.000000 191 109 57 255
-224.984619 86.445541 0.000000 -0.000000 0.000000 -1.000000 191 107 53 255
-224.984619 86.445541 3.750000 -0.996921 0.078416 0.000000 223 219 219 255
-224.984619 86.445541 0.000000 -0.996921 0.078416 0.000000 191 107 53 255
-225.000000 86.250000 0.000000 -0.996921 0.078416 0.000000 191 107 53 255
-225.000000 86.250000 3.750000 -0.996921 0.078416 0.000000 223 219 219 255
224.938828 86.636269 0.000000 0.000000 0.000000 -1.000000 191 109 58 255
224.984619 86.445541 3.750000 0.996921 0.078416 0.000000 191 191 191 255
224.938828 86.636269 0.000000 0.972368 0.233455 -0.000000 191 109 58 255
224.984619 86.445541 3.750000 0.972368 0.233455 -0.000000 191 191 191 255
224.984619 86.445541 0.000000 0.972368 0.233455 -0.000000 191 109 58 255
-224.938828 86.636269 0.000000 -0.000000 0.000000 -1.000000 191 107 54 255
-224.938828 86.636269 3.750000 -0.972368 0.233455 0.000000 223 219 219 255
-224.938828 86.636269 0.000000 -0.972368 0.233455 0.000000 191 107 54 255
-224.984619 86.445541 0.000000 -0.972368 0.233455 0.000000 191 107 53 255
-224.984619 86.445541 3.750000 -0.972368 0.233455 0.000000 223 219 219 255
224.863754 86.817490 0.000000 0.000000 0.000000 -1.000000 191 109 58 255
224.938828 86.636269 3.750000 0.972368 0.233455 0.000000 191 191 191 255
224.863754 86.817490 0.000000 0.923863 0.382723 -0.000000 191 109 58 255
224.938828 86.636269 3.750000 0.923863 0.382723 -0.000000 191 191 191 255
224.938828 86.636269 0.000000 0.923863 0.382723 -0.000000 191 109 58 255
-224.863754 86.817490 0.000000 -0.000000 0.000000 -1.000000 191 107 54 255
-224.863754 86.817490 3.750000 -0.923863 0.382723 0.000000 223 219 219 255
-224.863754 86.817490 0.000000 -0.923863 0.382723 0.000000 191 107 54 255
-224.938828 86.636269 0.000000 -0.923863 0.382723 0.000000 191 107 54 255
-224.938828 86.636269 3.750000 -0.923863 0.382723 0.000000 223 219 219 255
224.761276 86.984734 0.000000 0.000000 0.000000 -1.000000 191 109 58 255
224.863754 86.817490 3.750000 0.923863 0.382723 0.000000 191 191 191 255
224.761276 86.984734 0.000000 0.852661 0.522464 -0.000000 191 109 58 255
224.863754 86.817490 3.750000 0.852661 0.522464 -0.000000 191 191 191 255
224.863754 86.817490 0.000000 0.852661 0.522464 -0.000000 191 109 58 255
-224.761276 86.984734 0.000000 -0.000000 0.000000 -1.000000 191 108 54 255
-224.761276 86.984734 3.750000 -0.852661 0.522464 0.000000 223 219 219 255
-224.761276 86.984734 0.000000 -0.852661 0.522464 0.000000 191 108 54 255
-224.863754 86.817490 0.000000 -0.852661 0.522464 0.000000 191 107 54 255
-224.863754 86.817490 3.750000 -0.852661 0.522464 0.000000 223 219 219 255
224.633881 87.133881 0.000000 0.000000 0.000000 -1.000000 191 109 58 255
224.761276 86.984734 3.750000 0.852661 0.522464 0.000000 191 191 191 255
224.633881 87.133881 0.000000 0.760376 0.649484 -0.000000 191 109 58 255
224.761276 86.984734 3.750000 0.760376 0.649484 -0.000000 191 191 191 255
224.761276 86.984734 0.000000 0.760376 0.649484 -0.000000 191 109 58 255
-224.633881 87.133881 0.000000 -0.000000 0.000000 -1.000000 191 108 54 255
-224.633881 87.133881 3.750000 -0.760376 0.649484 0.000000 223 219 219 255
-224.633881 87.133881 0.000000 -0.760376 0.649484 0.000000 191 108 54 255
-224.761276 86.984734 0.000000 -0.760376 0.649484 0.000000 191 108 54 255
-224.761276 86.984734 3.750000 -0.760376 0.649484 0.000000 223 219 219 255
224.484726 87.261276 0.000000 0.000000 0.000000 -1.000000 191 109 58 255
224.633881 87.133881 3.750000 0.760376 0.649484 0.000000 191 191 191 255
224.484726 87.261276 0.000000 0.649464 0.760392 -0.000000 191 109 58 255
224.633881 87.133881 3.750000 0.649464 0.760392 -0.000000 191 191 191 255
224.633881 87.133881 0.000000 0.649464 0.760392 -0.000000 191 109 58 255
-224.484726 87.261276 0.000000 -0.000000 0.000000 -1.000000 191 108 54 255
-224.317490 87.363754 0.000000 -0.000000 0.000000 -1.000000 191 108 54 255
-224.136276 87.438820 0.000000 -0.000000 0.000000 -1.000000 191 108 54 255
-223.945541 87.484612 0.000000 -0.000000 0.000000 -1.000000 191 108 54 255
-224.484726 87.261276 3.750000 -0.649464 0.760392 0.000000 223 219 219 255
-224.484726 87.261276 0.000000 -0.649464 0.760392 0.000000 191 108 54 255
-224.633881 87.133881 0.000000 -0.649464 0.760392 0.000000 191 108 54 255
-224.633881 87.133881 3.750000 -0.649464 0.760392 0.000000 223 219 219 255
224.317490 87.363754 0.000000 0.000000 0.000000 -1.000000 191 109 58 255
224.484726 87.261276 3.750000 0.649464 0.760392 0.000000 191 191 191 255
224.317490 87.363754 0.000000 0.522482 0.852650 -0.000000 191 109 58 255
224.484726 87.261276 3.750000 0.522482 0.852650 -0.000000 191 191 191 255
224.484726 87.261276 0.000000 0.522482 0.852650 -0.000000 191 109 58 255
-224.317490 87.363754 3.750000 -0.522482 0.852650 0.000000 222 219 219 255
-224.317490 87.363754 0.000000 -0.522482 0.852650 0.000000 191 108 54 255
-224.484726 87.261276 0.000000 -0.522482 0.852650 0.000000 191 108 54 255
-224.484726 87.261276 3.750000 -0.522482 0.852650 0.000000 223 219 219 255
223.945541 87.484612 0.000000 0.000000 0.000000 -1.000000 191 109 58 255
224.136276 87.438820 0.000000 0.000000 0.000000 -1.000000 191 109 58 255
224.317490 87.363754 3.750000 0.522482 0.852650 0.000000 191 191 191 255
224.136276 87.438820 0.000000 0.382703 0.923871 -0.000000 191 109 58 255
224.317490 87.363754 3.750000 0.382703 0.923871 -0.000000 191 191 191 255
224.317490 87.363754 0.000000 0.382703 0.923871 -0.000000 191 109 58 255
-224.136276 87.438820 3.750000 -0.382703 0.923871 0.000000 222 218 218 255
-224.136276 87.438820 0.000000 -0.382703 0.923871 0.000000 191 108 54 255
-224.317490 87.363754 0.000000 -0.382703 0.923871 0.000000 191 108 54 255
-224.317490 87.363754 3.750000 -0.382703 0.923871 0.000000 222 219 219 255
224.136276 87.438820 3.750000 0.382703 0.923871 0.000000 191 191 191 255
223.945541 87.484612 0.000000 0.233447 0.972370 -0.000000 191 109 58 255
224.136276 87.438820 3.750000 0.233447 0.972370 -0.000000 191 191 191 255
224.136276 87.438820 0.000000 0.233447 0.972370 -0.000000 191 109 58 255
-223.945541 87.484612 3.750000 -0.233447 0.972370 0.000000 221 217 217 255
-223.945541 87.484612 0.000000 -0.233447 0.972370 0.000000 191 108 54 255
-224.136276 87.438820 0.000000 -0.233447 0.972370 0.000000 191 108 54 255
-224.136276 87.438820 3.750000 -0.233447 0.972370 0.000000 222 218 218 255
223.945541 87.484612 3.750000 0.233447 0.972370 0.000000 191 191 191 255
223.750000 87.500000 0.000000 0.078454 0.996918 -0.000000 191 109 58 255
223.945541 87.484612 3.750000 0.078454 0.996918 -0.000000 191 191 191 255
223.945541 87.484612 0.000000 0.078454 0.996918 -0.000000 191 109 58 255
-223.750000 87.500000 3.750000 -0.078454 0.996918 0.000000 221 216 216 255
-223.750000 87.500000 0.000000 -0.078454 0.996918 0.000000 191 108 54 255
-223.945541 87.484612 0.000000 -0.078454 0.996918 0.000000 191 108 54 255
-223.945541 87.484612 3.750000 -0.078454 0.996918 0.000000 221 217 217 255
223.750000 87.500000 3.750000 0.078454 0.996918 0.000000 191 191 191 255
221.875000 87.500000 0.000000 0.000000 1.000000 -0.000000 191 108 55 255
223.750000 87.500000 3.750000 0.000000 1.000000 -0.000000 191 191 191 255
223.750000 87.500000 0.000000 0.000000 1.000000 -0.000000 191 109 58 255
107.815292 87.500000 0.000000 0.000000 1.000000 -0.000000 191 107 52 255
-223.750000 87.500000 3.750000 0.000000 1.000000 -0.000000 221 216 216 255
-107.815292 87.500000 0.000000 0.000000 1.000000 0.000000 191 107 52 255
-223.750000 87.500000 0.000000 0.000000 1.000000 0.000000 191 108 54 255
223.750000 87.500000 3.750000 0.000000 -0.000000 1.000000 191 191 191 255
-223.750000 -87.500000 3.750000 0.000000 -0.000000 1.000000 191 191 191 255
223.750000 -87.500000 3.750000 0.000000 -0.000000 1.000000 191 191 191 255
224.863754 -86.817490 3.750000 -0.000000 0.000000 1.000000 191 191 191 255
224.938828 -86.636269 3.750000 -0.000000 0.000000 1.000000 191 191 191 255
224.984619 -86.445541 3.750000 -0.000000 0.000000 1.000000 191 191 191 255
225.000000 -86.250000 3.750000 -0.000000 0.000000 1.000000 191 191 191 255
223.945541 -87.484612 3.750000 -0.000000 0.000000 1.000000 191 191 191 255
224.633881 -87.133881 3.750000 -0.000000 0.000000 1.000000 191 191 191 255
224.761276 -86.984734 3.750000 -0.000000 0.000000 1.000000 191 191 191 255
-223.750000 87.500000 3.750000 0.000000 0.000000 1.000000 221 216 216 255
-225.000000 86.250000 3.750000 0.000000 -0.000000 1.000000 223 219 219 255
-225.000000 -86.250000 3.750000 0.000000 -0.000000 1.000000 191 191 191 255
-224.984619 -86.445541 3.750000 0.000000 0.000000 1.000000 191 191 191 255
-224.761276 -86.984734 3.750000 0.000000 0.000000 1.000000 191 191 191 255
-224.633881 -87.133881 3.750000 0.000000 0.000000 1.000000 191 191 191 255
-224.484726 -87.261276 3.750000 0.000000 0.000000 1.000000 191 191 191 255
-224.317490 -87.363754 3.750000 0.000000 0.000000 1.000000 191 191 191 255
-224.136276 -87.438820 3.750000 0.000000 0.000000 1.000000 191 191 191 255
-223.945541 -87.484612 3.750000 0.000000 0.000000 1.000000 191 191 191 255
-224.938828 -86.636269 3.750000 0.000000 0.000000 1.000000 191 191 191 255
-224.863754 -86.817490 3.750000 0.000000 0.000000 1.000000 191 191 191 255
224.136276 -87.438820 3.750000 -0.000000 0.000000 1.000000 191 191 191 255
224.317490 -87.363754 3.750000 -0.000000 0.000000 1.000000 191 191 191 255
224.484726 -87.261276 3.750000 -0.000000 0.000000 1.000000 191 191 191 255
225.000000 86.250000 3.750000 -0.000000 -0.000000 1.000000 191 191 191 255
224.984619 86.445541 3.750000 -0.000000 -0.000000 1.000000 191 191 191 255
-224.984619 86.445541 3.750000 0.000000 0.000000 1.000000 223 219 219 255
224.938828 86.636269 3.750000 -0.000000 -0.000000 1.000000 191 191 191 255
-224.938828 86.636269 3.750000 0.000000 0.000000 1.000000 223 219 219 255
224.863754 86.817490 3.750000 -0.000000 -0.000000 1.000000 191 191 191 255
-224.863754 86.817490 3.750000 0.000000 0.000000 1.000000 223 219 219 255
224.761276 86.984734 3.750000 -0.000000 -0.000000 1.000000 191 191 191 255
-224.761276 86.984734 3.750000 0.000000 0.000000 1.000000 223 219 219 255
224.633881 87.133881 3.750000 -0.000000 -0.000000 1.000000 191 191 191 255
-224.633881 87.133881 3.750000 0.000000 0.000000 1.000000 223 219 219 255
224.484726 87.261276 3.750000 -0.000000 -0.000000 1.000000 191 191 191 255
-224.484726 87.261276 3.750000 0.000000 0.000000 1.000000 223 219 219 255
224.317490 87.363754 3.750000 -0.000000 -0.000000 1.000000 191 191 191 255
-224.317490 87.363754 3.750000 0.000000 0.000000 1.000000 222 219 219 255
223.945541 87.484612 3.750000 -0.000000 -0.000000 1.000000 191 191 191 255
224.136276 87.438820 3.750000 -0.000000 -0.000000 1.000000 191 191 191 255
-223.945541 87.484612 3.750000 0.000000 0.000000 1.000000 221 217 217 255
-224.136276 87.438820 3.750000 0.000000 0.000000 1.000000 222 218 218 255
3 0 1 2
3 1 3 2
3 3 4 2
3 4 5 2
3 6 7 8
3 7 9 8
3 9 10 8
3 11 12 13
3 12 14 13
3 15 16 17
3 18 19 20
3 21 18 20
3 22 23 24
3 25 22 24
3 26 27 28
3 29 26 28
3 30 31 32
3 33 34 35
3 36 37 38
3 39 36 38
3 40 41 42
3 43 40 42
3 44 45 34
3 33 44 34
3 46 47 48
3 49 46 48
3 50 51 48
3 47 50 48
3 52 53 54
3 55 52 54
3 15 56 16
3 57 58 59
3 60 57 59
3 30 61 31
3 62 63 64
3 65 62 64
3 66 67 68
3 69 70 71
3 72 73 74
3 73 75 74
3 69 76 70
3 77 78 79
3 80 81 82
3 83 80 82
3 84 85 86
3 87 88 89
3 90 87 89
3 91 92 93
3 84 94 85
3 95 96 97
3 98 95 97
3 99 100 101
3 102 103 104
3 105 102 104
3 106 107 108
3 99 109 100
3 110 111 66
3 111 67 66
3 112 113 114
3 115 112 114
3 77 116 78
3 117 118 119
3 120 118 117
3 91 121 92
3 122 123 124
3 125 123 122
3 106 126 107
3 126 127 107
3 7 21 9
3 128 129 130
3 129 131 130
3 132 18 21
3 7 132 21
3 133 33 18
3 132 133 18
3 134 135 136
3 137 134 136
3 133 44 33
3 67 111 1
3 111 3 1
3 131 138 139
3 140 138 131
3 141 142 56
3 142 77 56
3 58 143 52
3 135 144 129
3 145 143 58
3 81 146 22
3 147 144 135
3 148 149 61
3 149 91 61
3 63 150 57
3 151 152 134
3 153 150 63
3 96 154 36
3 47 106 50
3 155 152 151
3 144 156 140
3 156 157 140
3 158 159 76
3 159 84 76
3 160 146 81
3 161 162 147
3 152 161 147
3 163 164 94
3 164 99 94
3 165 154 96
3 47 126 106
3 118 166 112
3 166 167 112
3 167 113 112
3 120 168 118
3 168 166 118
3 123 169 120
3 169 168 120
3 125 169 123
3 170 141 171
3 172 170 171
3 6 173 7
3 174 175 176
3 175 177 176
3 178 179 180
3 146 178 180
3 181 182 132
3 182 133 132
3 183 148 184
3 185 183 184
3 186 187 188
3 189 186 188
3 190 191 192
3 154 190 192
3 193 45 44
3 143 194 195
3 196 4 3
3 197 174 198
3 170 199 141
3 200 194 143
3 197 201 174
3 150 202 145
3 203 178 146
3 204 189 175
3 183 205 148
3 206 202 150
3 204 207 189
3 208 209 153
3 210 190 154
3 211 212 186
3 213 209 208
3 46 214 47
3 211 215 212
3 216 217 218
3 217 158 218
3 110 219 111
3 220 221 142
3 221 222 142
3 223 224 201
3 224 204 201
3 225 226 160
3 227 228 159
3 228 163 159
3 229 230 149
3 230 231 149
3 232 211 207
3 233 232 207
3 234 235 165
3 236 237 164
3 237 238 164
3 239 127 126
3 240 113 167
3 241 226 225
3 168 242 166
3 243 242 168
3 244 235 234
3 125 245 169
3 246 247 248
3 247 249 248
3 250 251 252
3 253 254 255
3 256 257 246
3 258 247 246
3 259 258 246
3 260 259 246
3 257 260 246
3 250 261 251
3 262 263 256
3 264 262 256
3 265 264 256
3 266 257 256
3 263 266 256
3 250 267 261
3 268 264 265
3 269 268 265
3 270 269 265
3 271 270 265
3 272 273 267
3 250 272 267
3 274 270 271
3 275 274 271
3 276 277 278
3 279 276 278
3 247 280 249
3 280 281 249
3 281 282 249
3 282 283 249
3 283 284 249
3 284 285 249
3 286 254 253
3 287 288 289
3 290 274 275
3 291 292 293
3 294 291 293
3 284 295 285
3 296 288 287
3 297 298 299
3 300 274 290
3 301 302 303
3 304 301 303
3 284 305 295
3 306 298 297
3 307 308 309
3 310 274 300
3 311 312 313
3 314 311 313
3 315 308 307
3 316 317 318
3 319 274 310
3 320 321 322
3 323 320 322
3 324 317 316
3 325 326 327
3 328 274 319
3 329 330 331
3 332 329 331
3 333 326 325
3 334 335 336
3 337 274 328
3 338 339 340
3 341 338 340
3 342 335 334
3 343 344 345
3 346 274 337
3 347 348 349
3 350 347 349
3 351 344 343
3 352 353 354
3 355 274 346
3 356 357 358
3 359 356 358
3 360 353 352
3 361 362 363
3 364 274 355
3 365 366 367
3 368 365 367
3 369 362 361
3 370 371 372
3 373 274 364
3 374 373 364
3 375 376 377
3 378 259 260
3 379 263 262
3 380 269 270
3 381 382 258
3 259 381 258
3 383 371 370
3 378 384 259
3 384 381 259
3 263 385 266
3 379 386 263
3 386 385 263
3 387 386 379
3 269 388 268
3 389 388 269
3 380 389 269
3 390 389 380
3 374 391 373
3 392 391 374
3 375 393 376
3 385 386 384
3 386 381 384
3 388 389 387
3 389 386 387
3 391 392 390
3 392 389 390
3 394 395 382
3 381 394 382
3 396 371 383
3 397 396 383
3 398 394 381
3 399 398 381
3 386 399 381
3 400 401 386
3 402 400 386
3 389 402 386
3 403 399 386
3 401 403 386
3 392 404 389
3 404 405 389
3 405 406 389
3 407 402 389
3 406 407 389
3 408 404 392
3 409 410 393
3 375 409 393
3 411 394 398
3 412 401 400
3 413 406 405
3 408 414 404
3 403 394 411
3 401 394 403
3 407 406 412
3 406 401 412
3 408 406 413
3 414 408 413
3 394 415 395
3 416 396 397
3 417 415 394
3 418 417 394
3 401 418 394
3 419 418 401
3 406 419 401
3 408 420 406
3 421 419 406
3 420 421 406
3 409 422 410
3 423 424 415
3 417 423 415
3 425 426 427
3 428 421 420
3 429 430 431
3 432 429 431
3 423 433 424
3 434 426 425
3 435 436 437
3 438 421 428
3 439 440 441
3 442 439 441
3 423 443 433
3 444 436 435
3 445 446 447
3 448 421 438
3 449 450 451
3 452 449 451
3 423 453 443
3 454 446 445
3 455 456 457
3 458 421 448
3 459 460 461
3 462 459 461
3 423 463 453
3 464 456 455
3 465 466 467
3 468 421 458
3 469 470 471
3 472 469 471
3 423 473 463
3 474 466 465
3 475 476 477
3 478 479 468
3 479 480 468
3 480 481 468
3 481 421 468
3 482 483 484
3 485 482 484
3 423 486 473
3 487 476 475
3 488 489 490
3 491 492 493
3 494 491 493
3 495 496 486
3 423 495 486
3 497 489 488
3 498 499 500
3 501 502 503
3 504 501 503
3 505 499 498
3 506 507 508
3 509 510 511
3 512 509 511
3 513 507 506
3 514 515 516
3 517 518 519
3 520 517 519
3 521 515 514
3 522 523 524
3 525 523 522
3 526 523 525
3 527 526 525
3 528 526 527
3 529 530 531
3 532 533 531
3 533 534 531
3 534 535 531
3 535 529 531
3 536 537 531
3 537 538 531
3 538 532 531
3 529 539 530
3 539 540 530
3 540 541 530
3 541 542 530
3 543 544 530
3 544 545 530
3 545 546 530
3 546 547 530
3 547 548 530
3 542 549 530
3 549 550 530
3 550 543 530
3 551 537 536
3 552 537 551
3 553 537 552
3 554 529 535
3 555 529 554
3 539 556 540
3 557 529 555
3 539 558 556
3 559 529 557
3 539 560 558
3 561 529 559
3 539 562 560
3 563 529 561
3 539 564 562
3 565 529 563
3 539 566 564
3 567 529 565
3 539 568 566
3 569 529 567
3 570 569 567
3 571 572 568
3 539 571 568
